<?xml version="1.0" encoding="utf-8"?><svg xmlns="http://www.w3.org/2000/svg" xmlns:xlink="http://www.w3.org/1999/xlink"><symbol viewBox="0 0 1792 1792" id="caret-down"><path d="M1408 704q0 26-19 45l-448 448q-19 19-45 19t-45-19L403 749q-19-19-19-45t19-45 45-19h896q26 0 45 19t19 45z"/></symbol><symbol viewBox="0 0 1792 1792" id="caret-left"><path d="M1216 448v896q0 26-19 45t-45 19-45-19L659 941q-19-19-19-45t19-45l448-448q19-19 45-19t45 19 19 45z"/></symbol><symbol viewBox="0 0 1792 1792" id="caret-right"><path d="M1152 896q0 26-19 45l-448 448q-19 19-45 19t-45-19-19-45V448q0-26 19-45t45-19 45 19l448 448q19 19 19 45z"/></symbol><symbol viewBox="0 0 1792 1792" id="caret-up"><path d="M1408 1216q0 26-19 45t-45 19H448q-26 0-45-19t-19-45 19-45l448-448q19-19 45-19t45 19l448 448q19 19 19 45z"/></symbol></svg>